<svg width="372" height="115" viewBox="0 0 372 115" fill="none" xmlns="http://www.w3.org/2000/svg">
<path d="M86.2609 0H28.7536C12.8734 0 0 12.8718 0 28.75V86.25C0 102.128 12.8734 115 28.7536 115H86.2609C102.141 115 115.014 102.128 115.014 86.25V28.75C115.014 12.8718 102.141 0 86.2609 0Z" fill="url(#paint0_linear_2_21)"/>
<path d="M59.9657 60.95H50.477V89.8438H41.4196C39.4643 89.8438 38.1704 89.5275 37.5379 88.895C36.9628 88.2625 36.6752 86.94 36.6752 84.9275V27.485H47.3716C48.2917 27.485 49.0393 27.8013 49.6144 28.4338C50.1894 29.0663 50.477 29.9 50.477 30.935V52.7563H59.9657V60.95ZM63.4161 27.485H72.4735C74.4287 27.485 75.6939 27.8013 76.269 28.4338C76.9016 29.0663 77.2178 30.3888 77.2178 32.4013V89.8438H66.5215C65.6014 89.8438 64.8538 89.5275 64.2787 88.895C63.7037 88.2625 63.4161 87.4288 63.4161 86.3938V27.485Z" fill="white"/>
<path d="M143.768 66.4844V15.5969H148.944V66.4844H143.768ZM151.532 66.4844V15.5969H159.295V66.4844H151.532ZM161.883 66.4844V15.5969H164.471V66.4844H161.883ZM157.915 94.3431C155.327 94.3431 153.228 93.4806 151.618 91.7556L152.826 89.7719L152.912 89.5131L153.171 89.5994C153.171 89.6569 153.199 89.7719 153.257 89.9444C153.257 90.0594 153.314 90.2031 153.429 90.3756C153.487 90.4906 153.602 90.6056 153.774 90.7206C154.982 91.7556 156.477 92.2731 158.26 92.2731C159.41 92.2731 160.388 91.9569 161.193 91.3244C161.998 90.6344 162.4 89.8294 162.4 88.9094C162.4 88.2769 162.257 87.7306 161.969 87.2706C161.739 86.8681 161.308 86.4656 160.675 86.0631C160.043 85.6606 159.065 85.1719 157.742 84.5969C155.787 83.8494 154.378 82.9869 153.516 82.0094C152.711 81.0319 152.308 79.9394 152.308 78.7319C152.308 77.2369 152.854 76.0294 153.947 75.1094C155.04 74.1894 156.506 73.7294 158.346 73.7294C159.439 73.7294 160.474 73.9594 161.452 74.4194C162.372 74.8794 163.206 75.4831 163.953 76.2306L162.487 78.2144L162.314 78.0419C162.314 77.9844 162.285 77.8981 162.228 77.7831C162.228 77.6106 162.17 77.4669 162.055 77.3519C161.998 77.1794 161.883 77.0356 161.71 76.9206C161.25 76.4606 160.704 76.1156 160.071 75.8856C159.496 75.7131 158.806 75.6269 158.001 75.6269C156.966 75.6269 156.161 75.9144 155.586 76.4894C154.953 77.0644 154.637 77.7544 154.637 78.5594C154.637 79.1919 154.752 79.7381 154.982 80.1981C155.27 80.6581 155.758 81.0894 156.448 81.4919C157.139 81.9519 158.174 82.4406 159.554 82.9581C161.452 83.7631 162.774 84.5681 163.522 85.3731C164.212 86.2356 164.557 87.2994 164.557 88.5644C164.557 89.5419 164.327 90.4619 163.867 91.3244C163.349 92.1869 162.602 92.9056 161.624 93.4806C160.589 94.0556 159.353 94.3431 157.915 94.3431ZM172.241 66.4844V15.5969H174.829V66.4844H172.241ZM182.593 66.4844V15.5969H192.944V66.4844H182.593ZM195.532 66.4844V15.5969H198.12V66.4844H195.532ZM186.474 94.2569C185.152 94.2569 183.973 93.9406 182.938 93.3081C181.96 92.6756 181.184 91.7844 180.609 90.6344C179.976 89.4844 179.659 88.1619 179.659 86.6669C179.659 85.1719 179.976 83.8494 180.609 82.6994C181.184 81.5494 181.96 80.6581 182.938 80.0256C183.973 79.3356 185.152 78.9906 186.474 78.9906C187.797 78.9906 188.947 79.3356 189.925 80.0256C190.96 80.6581 191.765 81.5494 192.34 82.6994C192.915 83.8494 193.203 85.1719 193.203 86.6669C193.203 88.1619 192.915 89.4844 192.34 90.6344C191.765 91.7844 190.96 92.6756 189.925 93.3081C188.947 93.9406 187.797 94.2569 186.474 94.2569ZM186.474 92.3594C187.28 92.3594 188.027 92.1006 188.717 91.5831C189.35 91.1231 189.867 90.4619 190.27 89.5994C190.615 88.6794 190.787 87.6731 190.787 86.5806C190.787 84.9131 190.385 83.5619 189.58 82.5269C188.775 81.4919 187.74 80.9744 186.474 80.9744C185.209 80.9744 184.174 81.4919 183.369 82.5269C182.564 83.5619 182.161 84.9131 182.161 86.5806C182.161 87.6731 182.334 88.6794 182.679 89.5994C183.082 90.4619 183.599 91.1231 184.232 91.5831C184.864 92.1006 185.612 92.3594 186.474 92.3594ZM200.715 66.4844V15.5969H203.303V66.4844H200.715ZM205.89 66.4844V15.5969H211.066V66.4844H205.89ZM221.417 66.4844V15.5969H224.005V66.4844H221.417ZM212.099 81.1469H208.909V79.3356H212.099V78.1281C212.099 76.2306 212.59 74.8219 213.568 73.9019C214.545 72.9819 215.868 72.5219 217.536 72.5219C218.456 72.5219 219.318 72.6656 220.123 72.9531C220.928 73.2981 221.59 73.8156 222.107 74.5056L220.9 76.2306L220.641 76.4894L220.468 76.3169C220.468 76.2594 220.468 76.1731 220.468 76.0581C220.411 75.9431 220.353 75.7994 220.296 75.6269C220.181 75.4544 220.037 75.3106 219.865 75.1956C219.577 74.9081 219.261 74.6781 218.916 74.5056C218.571 74.3906 218.111 74.3331 217.536 74.3331C216.558 74.3331 215.782 74.6494 215.207 75.2819C214.631 75.8569 214.344 76.8056 214.344 78.1281V79.3356H219.175V81.1469H214.344V93.9981H212.099V81.1469ZM229.186 66.4844V15.5969H231.774V66.4844H229.186ZM236.95 66.4844V15.5969H247.301V66.4844H236.95ZM249.889 66.4844V15.5969H252.477V66.4844H249.889ZM249.63 92.6181C248.25 93.7106 246.697 94.2569 244.972 94.2569C243.362 94.2569 242.212 93.7681 241.521 92.7906C240.831 91.7556 240.486 90.1456 240.486 87.9606C240.486 87.5581 240.515 86.9256 240.573 86.0631L240.918 81.2331H237.64V79.3356H241.004L241.263 75.4544L243.764 75.0231H244.109V75.1956C243.994 75.3681 243.908 75.5406 243.85 75.7131C243.735 75.8856 243.678 76.1156 243.678 76.4031L243.333 79.3356H248.164V81.2331H243.16L242.902 86.2356C242.844 87.0981 242.815 87.6444 242.815 87.8744C242.815 89.5994 243.017 90.7781 243.419 91.4106C243.822 91.9856 244.454 92.2731 245.317 92.2731C245.95 92.2731 246.553 92.1581 247.128 91.9281C247.646 91.6981 248.25 91.3244 248.94 90.8069L249.63 92.6181ZM257.659 66.4844V15.5969H268.011V66.4844H257.659ZM273.186 66.4844V15.5969H275.774V66.4844H273.186ZM278.362 66.4844V15.5969H280.95V66.4844H278.362ZM264.388 79.3356H266.372L268.787 91.1519L271.289 80.7156H272.669L275.774 91.0656C276.407 87.0981 276.781 84.4819 276.896 83.2169C277.068 81.9519 277.154 80.8306 277.154 79.8531V79.3356H279.311C278.678 84.2806 277.873 89.1681 276.896 93.9981H274.653L271.979 84.5106L269.391 93.9981H267.321L264.388 79.3356ZM286.133 66.4844V15.5969H288.721V66.4844H286.133ZM293.896 66.4844V15.5969H296.484V66.4844H293.896ZM299.072 66.4844V15.5969H304.247V66.4844H299.072ZM300.193 78.9906C302.263 78.9906 303.845 79.5369 304.938 80.6294C306.03 81.7219 306.577 83.5906 306.577 86.2356V93.9981H304.075V91.7556C303.212 93.4806 301.545 94.3431 299.072 94.3431C297.462 94.3431 296.196 93.9694 295.276 93.2219C294.356 92.4744 293.896 91.4969 293.896 90.2894C293.896 89.2544 294.241 88.3631 294.931 87.6156C295.564 86.8681 296.455 86.2644 297.605 85.8044C298.698 85.4019 299.934 85.2006 301.315 85.2006C302.522 85.2006 303.615 85.2581 304.593 85.3731C304.478 83.7631 304.046 82.6131 303.299 81.9231C302.551 81.2331 301.458 80.8881 300.021 80.8881C299.273 80.8881 298.583 81.0319 297.95 81.3194C297.26 81.6069 296.628 82.0094 296.053 82.5269L294.931 81.0606C296.312 79.6806 298.065 78.9906 300.193 78.9906ZM299.331 92.6181C300.941 92.6181 302.206 92.1294 303.126 91.1519C304.046 90.2319 304.535 88.9094 304.593 87.1844C303.615 87.0119 302.58 86.9256 301.487 86.9256C299.877 86.9256 298.583 87.2131 297.605 87.7881C296.685 88.3056 296.225 89.1106 296.225 90.2031C296.225 91.8131 297.26 92.6181 299.331 92.6181ZM314.604 66.4844V15.5969H317.194V66.4844H314.604ZM322.369 66.4844V15.5969H324.957V66.4844H322.369ZM330.133 66.4844V15.5969H340.484V66.4844H330.133ZM331.599 78.9906C333.152 78.9906 334.446 79.5369 335.481 80.6294L334.446 82.3544L334.36 82.6994L334.101 82.5269C334.043 82.2969 333.986 82.1244 333.928 82.0094C333.813 81.8369 333.612 81.6644 333.325 81.4919C332.807 81.1469 332.174 80.9744 331.427 80.9744C330.679 80.9744 329.96 81.1756 329.27 81.5781C328.58 81.9231 328.034 82.4981 327.631 83.3031C327.171 84.1081 326.941 85.0856 326.941 86.2356V93.9981H324.612V79.3356H327.028L326.941 82.0094C327.344 81.0894 327.976 80.3419 328.839 79.7669C329.702 79.2494 330.622 78.9906 331.599 78.9906ZM343.077 66.4844V15.5969H345.665V66.4844H343.077ZM348.253 66.4844V15.5969H353.429V66.4844H348.253ZM358.604 66.4844V15.5969H361.192V66.4844H358.604ZM358.001 94.3431C355.815 94.3431 354.09 93.6819 352.825 92.3594C351.502 91.0369 350.841 89.1681 350.841 86.7531C350.841 85.1431 351.157 83.7344 351.79 82.5269C352.365 81.3769 353.17 80.5144 354.205 79.9394C355.183 79.3069 356.304 78.9906 357.569 78.9906C359.352 78.9906 360.79 79.5656 361.882 80.7156C362.975 81.9231 363.521 83.6769 363.521 85.9769C363.521 86.2069 363.521 86.5519 363.521 87.0119H353.084C353.141 88.7944 353.63 90.1456 354.55 91.0656C355.47 91.9856 356.649 92.4456 358.087 92.4456C359.64 92.4456 360.905 91.8994 361.882 90.8069L363.176 92.1006C361.911 93.5956 360.186 94.3431 358.001 94.3431ZM361.192 85.2006C361.192 83.8206 360.847 82.7281 360.157 81.9231C359.467 81.1181 358.547 80.7156 357.397 80.7156C356.362 80.7156 355.442 81.0894 354.636 81.8369C353.831 82.5844 353.343 83.7056 353.17 85.2006H361.192Z" fill="white"/>
<defs>
<linearGradient id="paint0_linear_2_21" x1="-142.87" y1="-102.422" x2="135.65" y2="142.886" gradientUnits="userSpaceOnUse">
<stop stop-color="#03001C"/>
<stop offset="1" stop-color="#144272"/>
</linearGradient>
</defs>
</svg>
